<?xml version="1.0" encoding="UTF-8" standalone="no"?>
<!-- Created with Inkscape (http://www.inkscape.org/) -->
<svg
   xmlns:dc="http://purl.org/dc/elements/1.1/"
   xmlns:cc="http://creativecommons.org/ns#"
   xmlns:rdf="http://www.w3.org/1999/02/22-rdf-syntax-ns#"
   xmlns:svg="http://www.w3.org/2000/svg"
   xmlns="http://www.w3.org/2000/svg"
   xmlns:sodipodi="http://sodipodi.sourceforge.net/DTD/sodipodi-0.dtd"
   xmlns:inkscape="http://www.inkscape.org/namespaces/inkscape"
   width="1080"
   height="1080"
   id="svg2"
   sodipodi:version="0.32"
   inkscape:version="0.46+devel"
   version="1.0"
   sodipodi:docname="snowflake v1.svg"
   inkscape:output_extension="org.inkscape.output.svg.inkscape">
  <defs
     id="defs4">
    <inkscape:perspective
       sodipodi:type="inkscape:persp3d"
       inkscape:vp_x="0 : 526.18109 : 1"
       inkscape:vp_y="0 : 1000 : 0"
       inkscape:vp_z="744.09448 : 526.18109 : 1"
       inkscape:persp3d-origin="372.04724 : 350.78739 : 1"
       id="perspective10" />
    <inkscape:perspective
       id="perspective2635"
       inkscape:persp3d-origin="0.5 : 0.33333333 : 1"
       inkscape:vp_z="1 : 0.5 : 1"
       inkscape:vp_y="0 : 1000 : 0"
       inkscape:vp_x="0 : 0.5 : 1"
       sodipodi:type="inkscape:persp3d" />
    <inkscape:perspective
       id="perspective2653"
       inkscape:persp3d-origin="0.5 : 0.33333333 : 1"
       inkscape:vp_z="1 : 0.5 : 1"
       inkscape:vp_y="0 : 1000 : 0"
       inkscape:vp_x="0 : 0.5 : 1"
       sodipodi:type="inkscape:persp3d" />
    <inkscape:perspective
       id="perspective2674"
       inkscape:persp3d-origin="0.5 : 0.33333333 : 1"
       inkscape:vp_z="1 : 0.5 : 1"
       inkscape:vp_y="0 : 1000 : 0"
       inkscape:vp_x="0 : 0.5 : 1"
       sodipodi:type="inkscape:persp3d" />
    <inkscape:perspective
       id="perspective2695"
       inkscape:persp3d-origin="0.5 : 0.33333333 : 1"
       inkscape:vp_z="1 : 0.5 : 1"
       inkscape:vp_y="0 : 1000 : 0"
       inkscape:vp_x="0 : 0.5 : 1"
       sodipodi:type="inkscape:persp3d" />
    <inkscape:perspective
       id="perspective2716"
       inkscape:persp3d-origin="0.5 : 0.33333333 : 1"
       inkscape:vp_z="1 : 0.5 : 1"
       inkscape:vp_y="0 : 1000 : 0"
       inkscape:vp_x="0 : 0.5 : 1"
       sodipodi:type="inkscape:persp3d" />
    <inkscape:perspective
       id="perspective2737"
       inkscape:persp3d-origin="0.5 : 0.33333333 : 1"
       inkscape:vp_z="1 : 0.5 : 1"
       inkscape:vp_y="0 : 1000 : 0"
       inkscape:vp_x="0 : 0.5 : 1"
       sodipodi:type="inkscape:persp3d" />
    <inkscape:perspective
       id="perspective3532"
       inkscape:persp3d-origin="0.5 : 0.33333333 : 1"
       inkscape:vp_z="1 : 0.5 : 1"
       inkscape:vp_y="0 : 1000 : 0"
       inkscape:vp_x="0 : 0.5 : 1"
       sodipodi:type="inkscape:persp3d" />
    <inkscape:perspective
       id="perspective3554"
       inkscape:persp3d-origin="0.5 : 0.33333333 : 1"
       inkscape:vp_z="1 : 0.5 : 1"
       inkscape:vp_y="0 : 1000 : 0"
       inkscape:vp_x="0 : 0.5 : 1"
       sodipodi:type="inkscape:persp3d" />
    <inkscape:perspective
       id="perspective3575"
       inkscape:persp3d-origin="0.5 : 0.33333333 : 1"
       inkscape:vp_z="1 : 0.5 : 1"
       inkscape:vp_y="0 : 1000 : 0"
       inkscape:vp_x="0 : 0.5 : 1"
       sodipodi:type="inkscape:persp3d" />
    <inkscape:perspective
       id="perspective3596"
       inkscape:persp3d-origin="0.5 : 0.33333333 : 1"
       inkscape:vp_z="1 : 0.5 : 1"
       inkscape:vp_y="0 : 1000 : 0"
       inkscape:vp_x="0 : 0.5 : 1"
       sodipodi:type="inkscape:persp3d" />
    <inkscape:perspective
       id="perspective3617"
       inkscape:persp3d-origin="0.5 : 0.33333333 : 1"
       inkscape:vp_z="1 : 0.5 : 1"
       inkscape:vp_y="0 : 1000 : 0"
       inkscape:vp_x="0 : 0.5 : 1"
       sodipodi:type="inkscape:persp3d" />
    <inkscape:perspective
       id="perspective3638"
       inkscape:persp3d-origin="0.5 : 0.33333333 : 1"
       inkscape:vp_z="1 : 0.5 : 1"
       inkscape:vp_y="0 : 1000 : 0"
       inkscape:vp_x="0 : 0.5 : 1"
       sodipodi:type="inkscape:persp3d" />
  </defs>
  <sodipodi:namedview
     id="base"
     pagecolor="#ffffff"
     bordercolor="#666666"
     borderopacity="1.0"
     gridtolerance="10000"
     guidetolerance="10"
     objecttolerance="10"
     inkscape:pageopacity="0.0"
     inkscape:pageshadow="2"
     inkscape:zoom="0.49497475"
     inkscape:cx="505.04313"
     inkscape:cy="591.60786"
     inkscape:document-units="px"
     inkscape:current-layer="layer1"
     showgrid="false"
     units="in"
     inkscape:window-width="1900"
     inkscape:window-height="1060"
     inkscape:window-x="1449"
     inkscape:window-y="24" />
  <metadata
     id="metadata7">
    <rdf:RDF>
      <cc:Work
         rdf:about="">
        <dc:format>image/svg+xml</dc:format>
        <dc:type
           rdf:resource="http://purl.org/dc/dcmitype/StillImage" />
        <dc:title></dc:title>
      </cc:Work>
    </rdf:RDF>
  </metadata>
  <g
     inkscape:label="Layer 1"
     inkscape:groupmode="layer"
     id="layer1">
    <path
       style="fill:#24cad8;fill-opacity:1;stroke:#ffcaff;stroke-opacity:1"
       d="m 543.69067,15.673386 c -0.32767,0.28975 -0.99554,1.38727 -1.46875,2.4375 -0.47321,1.05024 -1.11615,2.3825 -1.4375,2.96875 -0.32135,0.58624 -0.85707,1.67152 -1.1875,2.40625 -1.60968,3.579149 -5.51385,9.1198 -9.25,13.125 -4.44957,4.76997 -7.65447,9.88978 -9.46875,15.1875 -3.04109,10.035894 -3.49251,19.472192 -0.53125,29.5625 l 0.15625,1.34375 -0.875,-0.65625 c -0.4857,-0.37192 -1.56876,-1.24273 -2.40625,-1.90625 -2.18617,-1.73205 -4.36806,-2.48465 -7.3125,-2.53125 -2.20857,-0.03499 -2.64821,0.0736 -4.71875,1.0625 -2.74526,1.31116 -5.13014,3.3354 -7.65625,6.5 -4.71325,5.90459 -7.11506,12.801089 -8.15625,23.281254 -0.20643,3.38552 0.11452,10.44306 1.125,12.09375 3.81972,-3.41935 8.04055,-6.85821 13.09375,-8.15625 4.05392,-0.8405 3.59843,1.1237 3.84375,4.46875 -1.85992,17.78209 -8.55437,34.59793 -11.53125,52.1875 -0.009,1.16295 -0.0722,1.26373 -0.625,1.125 -5.6703,-1.42315 -12.15148,1.39037 -15.84375,6.84375 -3.70101,5.46629 -5.23659,10.54903 -5.78125,19.1875 -0.10031,8.6014 1.48502,20.27375 11.09375,22.96875 4.10921,0.8539 8.04699,-1.42713 10.875,-4.34375 l 1.84375,-2 0.53125,0.78125 c 0.76983,1.17491 2.04346,6.48456 2.21875,9.25 0.48628,7.63191 -0.21199,15.04376 -4.09375,21.90625 -3.68934,6.40344 -8.57423,12.02425 -16.5625,12.03125 -2.92866,-0.0927 -5.55818,-1.2118 -8.1875,-2.4375 l 0.21875,8.4375 c 0.18567,7.91309 0.1486,8.67172 -0.46875,11.75 -1.37968,6.87956 -3.72126,11.25928 -9.6875,18.15625 -3.28101,3.79286 -5.00339,6.81887 -9.375,16.34375 -1.2742,2.77625 -4.33388,11.14035 -5.03125,13.78125 -0.64336,2.4363 -1.35348,6.48145 -1.84375,10.40625 -0.15692,1.2562 -0.42846,3.12 -0.59375,4.125 -0.54305,3.3019 -1.48593,9.41435 -1.65625,10.65625 -0.0919,0.67 -0.44699,2.79255 -0.78125,4.71875 -0.33427,1.9263 -0.70554,4.69845 -0.8125,6.15625 l -0.0625,1 -1.21875,-0.59375 c -1.31597,-0.63627 -3.91464,-1.70134 -5.75,-2.375 -1.83527,-0.67362 -3.84256,-1.43209 -4.46875,-1.6875 -1.16068,-0.47345 -6.93144,-2.69435 -10.0625,-3.875 -0.953,-0.35936 -2.67739,-1.0703 -3.84375,-1.5625 -3.64411,-1.53781 -7.50592,-2.93277 -9.9375,-3.59375 -2.63577,-0.71651 -11.42734,-2.24661 -14.46875,-2.53125 -10.43459,-0.97651 -13.91853,-1.00749 -18.84375,-0.0625 -8.95607,1.71843 -13.91479,1.55744 -20.5625,-0.6875 -2.97455,-1.0045 -3.64615,-1.35141 -10.40625,-5.46875 l -7.1875,-4.40625 c -0.25317,2.88991 -0.61596,5.72986 -2,8.3125 -4.0002,6.91455 -11.29729,8.31916 -18.6875,8.3125 -7.88397,-0.0695 -14.66496,-3.16916 -21.03125,-7.40625 -2.30729,-1.53453 -6.27366,-5.27711 -6.90625,-6.53125 l -0.40625,-0.875 2.65625,-0.59375 c 3.93987,-0.99082 7.90364,-3.26437 9.21875,-7.25 2.47043,-9.66891 -6.87581,-16.84867 -14.375,-21.0625 -7.75346,-3.84754 -12.91555,-5.06577 -19.5,-4.59375 -6.5689,0.47091 -12.24108,4.65905 -13.84375,10.28125 -0.15626,0.5481 -0.26965,0.57362 -1.28125,0 -16.72145,-6.21673 -34.63905,-8.84469 -50.96875,-16.125 -2.77423,-1.88497 -4.69236,-2.47195 -1.9375,-5.5625 3.65073,-3.72718 8.72265,-5.65171 13.59375,-7.25 -0.9243,-1.70045 -6.87109,-5.51726 -9.90625,-7.03125 -9.59669,-4.33838 -16.7486,-5.692 -24.21875,-4.5625 -4.00368,0.60538 -6.96062,1.65311 -9.46875,3.375 -1.89168,1.29869 -2.20727,1.63233 -3.28125,3.5625 -1.43187,2.57326 -1.87566,4.83444 -1.46875,7.59375 0.15588,1.05705 0.35826,2.42466 0.4375,3.03125 l 0.15625,1.09375 -1.09375,-0.8125 c -7.25783,-7.60968 -15.66312,-11.92821 -25.875,-14.3125 -5.4951,-1.07765 -11.5193,-0.87471 -17.875,0.59375 -5.33669,1.233 -12.09552,1.83306 -16,1.4375 -0.801511,-0.0812 -2.019131,-0.14142 -2.687501,-0.15625 -0.66838,-0.0148 -2.13511,-0.13469 -3.28125,-0.25 -1.14614,-0.1153 -2.42898,-0.0764 -2.84375,0.0625 0.0871,0.42864 0.70207,1.53382 1.375,2.46875 0.67293,0.93493 1.49672,2.17857 1.84375,2.75 0.34702,0.57141 1.02892,1.56522 1.5,2.21875 2.2948,3.18359 5.149471,9.35555 6.750001,14.59375 1.90614,6.23843 4.72543,11.56118 8.40625,15.78125 7.17079,7.65161 15.12466,12.76938 25.34375,15.25 l 1.25,0.53125 -1.03125,0.4375 c -0.56494,0.23467 -1.85038,0.73147 -2.84375,1.125 -2.59308,1.02725 -4.33118,2.53584 -5.84375,5.0625 -1.13459,1.89519 -1.25864,2.33741 -1.4375,4.625 -0.23713,3.03305 0.33493,6.10502 1.8125,9.875 2.7569,7.03409 7.50701,12.54573 16.0625,18.6875 2.82873,1.87153 9.09647,5.1435 11.03125,5.09375 -1.05138,-5.01765 -1.90247,-10.41228 -0.5,-15.4375 1.29906,-3.93105 2.7617,-2.55381 5.78125,-1.09375 14.46978,10.50179 25.69293,24.72091 39.4375,36.09375 1.00265,0.58927 1.05279,0.68438 0.65625,1.09375 -4.06763,4.19905 -4.87663,11.23196 -2,17.15625 2.88344,5.93831 6.50995,9.80282 13.71875,14.59375 7.39888,4.38757 18.33045,8.84891 25.46875,1.875 2.7941,-3.13173 2.76811,-7.68631 1.65625,-11.59375 l -0.8125,-2.59375 0.9375,-0.0625 c 1.40242,-0.0792 6.64242,1.45659 9.125,2.6875 6.85257,3.39483 12.93529,7.70705 16.9375,14.5 3.70087,6.39678 6.11307,13.45346 2.125,20.375 -1.54462,2.48994 -3.81135,4.2108 -6.1875,5.875 l 7.40625,4.03125 c 6.94577,3.79575 7.5803,4.20747 9.9375,6.28125 5.26803,4.63462 7.88517,8.85335 10.875,17.46875 1.64421,4.73786 3.40577,7.73288 9.46875,16.28125 1.76721,2.49161 7.4991,9.32561 9.4375,11.25 1.78822,1.77532 4.93991,4.39427 8.09375,6.78125 1.00944,0.764 2.46229,1.9481 3.25,2.59375 2.58801,2.12124 7.41589,5.98154 8.40625,6.75 0.53429,0.41458 2.18649,1.80993 3.6875,3.0625 1.50109,1.25264 3.72849,2.95972 4.9375,3.78125 l 1.3125,0.875 -1.40625,0.96875 c -1.20901,0.82153 -3.43641,2.52861 -4.9375,3.78125 -1.50101,1.25258 -3.15321,2.61666 -3.6875,3.03125 -0.99036,0.76846 -5.81825,4.62874 -8.40625,6.75 -0.78772,0.64564 -2.27181,1.82975 -3.28125,2.59375 -3.15383,2.38698 -6.30553,5.00592 -8.09375,6.78125 -1.9384,1.92438 -7.63904,8.75838 -9.40625,11.25 -6.06298,8.54836 -7.82453,11.57464 -9.46875,16.3125 -2.98983,8.6154 -5.60697,12.83414 -10.875,17.46875 -2.3572,2.07379 -2.99172,2.4855 -9.9375,6.28125 l -7.4375,4.03125 c 2.37616,1.66421 4.67414,3.35382 6.21875,5.84375 3.98808,6.92155 1.57587,13.97823 -2.125,20.375 -4.00217,6.79297 -10.08493,11.10517 -16.9375,14.5 -2.48259,1.2309 -7.72259,2.76673 -9.125,2.6875 l -0.9375,-0.0625 0.8125,-2.59375 c 1.11186,-3.90744 1.1066,-8.46202 -1.6875,-11.59375 -7.13831,-6.97391 -18.03862,-2.51257 -25.4375,1.875 -7.20879,4.79093 -10.83531,8.65545 -13.71875,14.59375 -2.87663,5.92429 -2.06764,12.95719 2,17.15625 0.39653,0.40937 0.34632,0.50449 -0.65625,1.09375 -13.74458,11.37284 -24.96772,25.59197 -39.4375,36.09375 -3.01955,1.46007 -4.48219,2.8373 -5.78125,-1.09375 -1.40247,-5.02522 -0.55139,-10.38861 0.5,-15.40625 -1.93479,-0.0498 -8.20252,3.19097 -11.03125,5.0625 -8.55549,6.14178 -13.33685,11.65341 -16.09375,18.6875 -1.47756,3.76998 -2.01839,6.8732 -1.78125,9.90625 0.17885,2.28759 0.30291,2.69857 1.4375,4.59375 1.51257,2.52667 3.25067,4.03524 5.84375,5.0625 0.99337,0.39353 2.27881,0.92158 2.84375,1.15625 l 1,0.40625 -1.21875,0.5625 c -10.21909,2.48062 -18.17295,7.56715 -25.34375,15.21875 -3.68082,4.22007 -6.53137,9.57407 -8.4375,15.8125 -1.60054,5.23821 -4.423951,11.37891 -6.718751,14.5625 -0.47108,0.65353 -1.15297,1.64734 -1.5,2.21875 -0.34701,0.57144 -1.17082,1.81507 -1.84375,2.75 -0.67292,0.93493 -1.2879,2.07135 -1.375,2.5 0.41476,0.13889 1.69761,0.14657 2.84375,0.0312 1.14614,-0.11531 2.61286,-0.20393 3.28125,-0.21875 0.66837,-0.0148 1.88599,-0.10629 2.687501,-0.1875 3.90447,-0.39556 10.63207,0.2045 15.96875,1.4375 6.35571,1.46845 12.41115,1.70265 17.90625,0.625 10.21189,-2.38428 18.61717,-6.73407 25.875,-14.34375 l 1.0625,-0.78125 -0.125,1.0625 c -0.0792,0.60658 -0.28162,2.00545 -0.4375,3.0625 -0.40691,2.7593 0.0369,5.02049 1.46875,7.59375 1.07399,1.93017 1.38957,2.23256 3.28125,3.53125 2.50813,1.72189 5.43382,2.80087 9.4375,3.40625 7.47015,1.1295 14.65332,-0.25536 24.25,-4.59375 3.03516,-1.51398 8.98194,-5.33081 9.90625,-7.03125 -4.87111,-1.59831 -9.94301,-3.52282 -13.59375,-7.25 -2.75486,-3.09054 -0.83672,-3.67753 1.9375,-5.5625 16.32971,-7.28031 34.24729,-9.87702 50.96875,-16.09375 1.01165,-0.57368 1.125,-0.57938 1.28125,-0.0312 1.60267,5.62219 7.27485,9.84159 13.84375,10.3125 6.58445,0.47202 11.74653,-0.74621 19.5,-4.59375 7.49919,-4.21384 16.81418,-11.42485 14.34375,-21.09375 -1.31511,-3.98563 -5.24762,-6.25918 -9.1875,-7.25 l -2.65625,-0.59375 0.40625,-0.84375 c 0.63262,-1.25413 4.59896,-5.02797 6.90625,-6.5625 6.36629,-4.23708 13.14728,-7.33671 21.03125,-7.40625 7.39021,-0.007 14.6873,1.42921 18.6875,8.34375 1.38404,2.58265 1.71559,5.39134 1.96875,8.28125 l 7.21875,-4.40625 c 6.7601,-4.11734 7.4317,-4.46425 10.40625,-5.46875 6.64771,-2.24494 11.60643,-2.40593 20.5625,-0.6875 4.92521,0.945 8.40916,0.94527 18.84375,-0.0312 3.0414,-0.28464 11.80173,-1.81474 14.4375,-2.53125 2.43159,-0.66098 6.29339,-2.08718 9.9375,-3.625 1.16636,-0.4922 2.922,-1.1719 3.875,-1.53125 3.13106,-1.18066 8.90182,-3.43281 10.0625,-3.90625 0.62618,-0.25542 2.63348,-1.01387 4.46875,-1.6875 1.83536,-0.67366 4.43402,-1.73873 5.75,-2.375 l 1.28125,-0.625 0.0937,1.28125 c 0.10696,1.4578 0.47823,4.22995 0.8125,6.15625 0.33426,1.9262 0.68935,4.04875 0.78125,4.71875 0.17033,1.24191 1.11318,7.35435 1.65625,10.65625 0.16528,1.00501 0.43683,2.8688 0.59375,4.125 0.49027,3.92479 1.20038,7.96994 1.84375,10.40625 0.69736,2.64089 3.75704,11.00499 5.03125,13.78125 4.3716,9.52487 6.094,12.55088 9.375,16.34375 5.96624,6.89697 8.30783,11.2767 9.6875,18.15625 0.61736,3.07829 0.65442,3.8369 0.46875,11.75 l -0.21875,8.4375 c 2.62933,-1.22571 5.25886,-2.34479 8.1875,-2.4375 7.98828,0.007 12.87317,5.62782 16.5625,12.03125 3.8818,6.86247 4.58002,14.27434 4.09375,21.90625 -0.17531,2.76544 -1.44893,8.07509 -2.21875,9.25 l -0.53125,0.78125 -1.84375,-2 c -2.82801,-2.91662 -6.76579,-5.19765 -10.875,-4.34375 -9.60873,2.695 -11.19406,14.36735 -11.09375,22.96875 0.54467,8.63846 2.08025,13.72122 5.78125,19.1875 3.69227,5.45338 10.17344,8.2669 15.84375,6.84375 0.55279,-0.13872 0.61597,-0.0379 0.625,1.125 2.97688,17.58958 9.67133,34.40541 11.53125,52.1875 -0.24532,3.34504 0.21017,5.30926 -3.84375,4.46875 -5.0532,-1.29803 -9.27404,-4.7369 -13.09375,-8.15625 -1.01052,1.65068 -1.33142,8.70824 -1.125,12.09375 1.0412,10.48017 3.443,17.37666 8.15625,23.28125 2.52612,3.1646 4.91098,5.18884 7.65625,6.5 2.07053,0.9889 2.51018,1.0975 4.71875,1.0625 2.94444,-0.0466 5.12633,-0.7992 7.3125,-2.53125 0.83749,-0.66352 1.92055,-1.53433 2.40625,-1.90625 l 0.875,-0.65625 -0.15625,1.34375 c -2.96126,10.09026 -2.50983,19.52656 0.53125,29.56246 1.81428,5.2977 5.01918,10.4176 9.46875,15.1876 3.73616,4.0052 7.64033,9.5459 9.25,13.125 0.33043,0.7346 0.86616,1.8199 1.1875,2.4062 0.32138,0.5862 0.9643,1.9186 1.4375,2.9688 0.47322,1.0501 1.14108,2.1477 1.46875,2.4374 0.32766,-0.2898 0.99555,-1.3871 1.46875,-2.4374 0.4732,-1.0502 1.11614,-2.3826 1.4375,-2.9688 0.32137,-0.5862 0.85708,-1.6715 1.1875,-2.4062 1.60967,-3.5792 5.51385,-9.1198 9.25,-13.125 4.44957,-4.77 7.65447,-9.8899 9.46875,-15.1876 3.0411,-10.0359 3.49251,-19.4722 0.53125,-29.56246 l -0.1562,-1.3438 0.875,0.65625 c 0.48572,0.37188 1.56876,1.24273 2.40625,1.90625 2.18617,1.73204 4.36809,2.48461 7.3125,2.53125 2.20858,0.035 2.64821,-0.0736 4.71875,-1.0625 2.74526,-1.31116 5.13014,-3.3354 7.65625,-6.5 4.71325,-5.90459 7.11506,-12.80109 8.15625,-23.28125 0.20643,-3.38552 -0.11453,-10.44306 -1.125,-12.09375 -3.81973,3.41935 -8.04055,6.85821 -13.09375,8.15625 -4.05392,0.84051 -3.59843,-1.12372 -3.84375,-4.46875 1.85992,-17.7821 8.55437,-34.59793 11.53125,-52.1875 0.009,-1.16295 0.0722,-1.26375 0.625,-1.125 5.67029,1.42314 12.15148,-1.39037 15.84375,-6.84375 3.701,-5.46629 5.23658,-10.54903 5.78125,-19.1875 0.1003,-8.60141 -1.48502,-20.27376 -11.09375,-22.96875 -4.10921,-0.8539 -8.04699,1.42712 -10.875,4.34375 l -1.84375,2 -0.53125,-0.78125 c -0.7698,-1.17493 -2.04345,-6.48457 -2.21875,-9.25 -0.48627,-7.63191 0.21198,-15.04376 4.09375,-21.90625 3.68904,-6.40361 8.57423,-12.02425 16.5625,-12.03125 2.92866,0.0927 5.55818,1.21179 8.1875,2.4375 l -0.21875,-8.4375 c -0.18567,-7.91309 -0.14861,-8.67171 0.46875,-11.75 1.37968,-6.87955 3.72126,-11.25928 9.6875,-18.15625 3.281,-3.79286 5.00339,-6.81887 9.375,-16.34375 1.27419,-2.77625 4.33388,-11.14036 5.03125,-13.78125 0.64337,-2.43631 1.35349,-6.48145 1.84375,-10.40625 0.15692,-1.2562 0.42845,-3.12 0.59375,-4.125 0.54305,-3.30191 1.48592,-9.41435 1.65625,-10.65625 0.0919,-0.67 0.447,-2.79255 0.78125,-4.71875 0.33428,-1.9263 0.70554,-4.69844 0.8125,-6.15625 l 0.0937,-1.375 1.25,0.59375 c 1.31598,0.63627 3.88339,1.70133 5.71875,2.375 1.83526,0.67362 3.84256,1.43209 4.46875,1.6875 1.16069,0.47345 6.93144,2.69436 10.0625,3.875 0.95301,0.35937 2.70864,1.0703 3.875,1.5625 3.6441,1.53781 7.50591,2.93277 9.9375,3.59375 2.63576,0.71651 11.39608,2.24662 14.4375,2.53125 10.43458,0.97652 13.91853,1.0075 18.84375,0.0625 8.95607,-1.71843 13.9148,-1.55744 20.5625,0.6875 2.97456,1.0045 3.67739,1.3514 10.4375,5.46875 l 7.1875,4.40625 c 0.25316,-2.88992 0.58472,-5.72987 1.96875,-8.3125 4.0002,-6.91455 11.32855,-8.31916 18.71875,-8.3125 7.88397,0.0695 14.63371,3.16917 21,7.40625 2.30729,1.53454 6.27366,5.27711 6.90625,6.53125 l 0.40625,0.84375 -2.65625,0.625 c -3.93987,0.99082 -7.8724,3.23312 -9.1875,7.21875 -2.47043,9.66891 6.84456,16.87992 14.34375,21.09375 7.75346,3.84753 12.91556,5.06577 19.5,4.59375 6.5689,-0.47091 12.24108,-4.65904 13.84375,-10.28125 0.15626,-0.54809 0.3009,-0.57362 1.3125,0 16.72147,6.21674 34.6078,8.84469 50.9375,16.125 2.77423,1.88497 4.72362,2.47195 1.96875,5.5625 -3.65072,3.72718 -8.75391,5.65171 -13.625,7.25 0.92427,1.70048 6.87111,5.51726 9.90625,7.03125 9.5967,4.33838 16.77985,5.692 24.25,4.5625 4.00369,-0.60538 6.96062,-1.6531 9.46875,-3.375 1.89168,-1.29868 2.20728,-1.63232 3.28125,-3.5625 1.43187,-2.57326 1.84442,-4.83445 1.4375,-7.59375 -0.15588,-1.05705 -0.35826,-2.42466 -0.4375,-3.03125 l -0.125,-1.09375 1.09375,0.8125 c 7.25783,7.60969 15.63186,11.9282 25.84375,14.3125 5.49508,1.07764 11.55053,0.87469 17.90625,-0.59375 5.33669,-1.23301 12.09557,-1.83304 16,-1.4375 0.80144,0.0812 1.98785,0.14139 2.65625,0.15625 0.6684,0.0148 2.1664,0.1347 3.3125,0.25 1.1462,0.11528 2.4291,0.0764 2.8437,-0.0625 -0.087,-0.42866 -0.7019,-1.56504 -1.375,-2.5 -0.6729,-0.9349 -1.5281,-2.14734 -1.875,-2.71875 -0.3469,-0.57141 -0.9977,-1.56525 -1.4687,-2.21875 -2.2949,-3.18362 -5.14947,-9.35555 -6.75,-14.59375 -1.90616,-6.23844 -4.75669,-11.56118 -8.4375,-15.78125 -7.17083,-7.65164 -15.09341,-12.76937 -25.3125,-15.25 l -1.25,-0.53125 1,-0.4375 c 0.56492,-0.2347 1.85038,-0.73147 2.84375,-1.125 2.59307,-1.02726 4.3624,-2.53588 5.875,-5.0625 1.1346,-1.89518 1.25864,-2.33741 1.4375,-4.625 0.23713,-3.03305 -0.33493,-6.10503 -1.8125,-9.875 -2.7569,-7.03409 -7.53826,-12.57697 -16.09375,-18.71875 -2.82873,-1.87153 -9.09648,-5.11225 -11.03125,-5.0625 1.05138,5.01766 1.93372,10.41228 0.53125,15.4375 -1.29905,3.93105 -2.79296,2.55381 -5.8125,1.09375 -14.46979,-10.50179 -25.66168,-24.72091 -39.40625,-36.09375 -1.00265,-0.58927 -1.08408,-0.68436 -0.6875,-1.09375 4.06762,-4.19905 4.87663,-11.23196 2,-17.15625 -2.88345,-5.93831 -6.50995,-9.80282 -13.71875,-14.59375 -7.39889,-4.38757 -18.2992,-8.84891 -25.4375,-1.875 -2.7941,3.13173 -2.79937,7.6863 -1.6875,11.59375 l 0.8125,2.59375 -0.9375,0.0625 c -1.40242,0.0792 -6.64242,-1.48785 -9.125,-2.71875 -6.85256,-3.39484 -12.90404,-7.6758 -16.90625,-14.46875 -3.70117,-6.39661 -6.14432,-13.45346 -2.15625,-20.375 1.54462,-2.48995 3.84259,-4.2108 6.21875,-5.875 l -7.4062,-4.03125 c -6.94577,-3.79575 -7.61155,-4.20746 -9.96875,-6.28125 -5.26802,-4.63462 -7.88517,-8.85335 -10.875,-17.46875 -1.64421,-4.73786 -3.40576,-7.73289 -9.46875,-16.28125 -1.76721,-2.49161 -7.46786,-9.32561 -9.40625,-11.25 -1.78822,-1.77533 -4.93991,-4.42552 -8.09375,-6.8125 -1.00944,-0.764 -2.49354,-1.91685 -3.28125,-2.5625 -2.58801,-2.12125 -7.4159,-5.98154 -8.40625,-6.75 -0.53429,-0.41459 -2.18649,-1.80993 -3.6875,-3.0625 -1.50109,-1.25264 -3.69723,-2.95972 -4.90625,-3.78125 l -1.125,-0.75 1.375,-0.90625 c 1.20902,-0.82154 3.40516,-2.52862 4.90625,-3.78125 1.50101,-1.25258 3.15321,-2.64791 3.6875,-3.0625 0.99036,-0.76846 5.81825,-4.62874 8.40625,-6.75 0.78773,-0.64564 2.27182,-1.79851 3.28125,-2.5625 3.15384,-2.38698 6.30553,-5.03717 8.09375,-6.8125 1.9384,-1.92438 7.63904,-8.75837 9.40625,-11.25 6.06298,-8.54835 7.82453,-11.54338 9.46875,-16.28125 2.98983,-8.6154 5.60698,-12.83414 10.875,-17.46875 2.35721,-2.07379 3.02296,-2.4855 9.96875,-6.28125 l 7.40625,-4.03125 c -2.37617,-1.6642 -4.67414,-3.38507 -6.21875,-5.875 -3.98807,-6.92154 -1.54461,-13.97823 2.15625,-20.375 4.00218,-6.79297 10.05368,-11.07392 16.90625,-14.46875 2.48259,-1.2309 7.72259,-2.79798 9.125,-2.71875 l 0.9375,0.0625 -0.8125,2.59375 c -1.11186,3.90744 -1.1066,8.46203 1.6875,11.59375 7.13831,6.97391 18.03862,2.51258 25.4375,-1.875 7.20879,-4.79093 10.83531,-8.65545 13.71875,-14.59375 2.87663,-5.92429 2.09889,-12.95719 -1.96875,-17.15625 -0.39653,-0.40937 -0.34632,-0.50449 0.65625,-1.09375 13.74459,-11.37285 24.93647,-25.59197 39.40625,-36.09375 3.01955,-1.46007 4.51344,-2.80607 5.8125,1.125 1.40247,5.0252 0.52014,10.38862 -0.53125,15.40625 1.9348,0.0498 8.20253,-3.19099 11.03125,-5.0625 8.5555,-6.14179 13.33685,-11.68466 16.09375,-18.71875 1.47757,-3.76999 2.04965,-6.84195 1.8125,-9.875 -0.17885,-2.28759 -0.3029,-2.72983 -1.4375,-4.625 -1.51258,-2.52667 -3.25067,-4.03525 -5.84375,-5.0625 -0.99337,-0.39353 -2.31005,-0.89032 -2.875,-1.125 l -1,-0.4375 1.25,-0.53125 c 10.2191,-2.48062 18.17295,-7.59839 25.34375,-15.25 3.68081,-4.22006 6.50009,-9.54282 8.40625,-15.78125 1.60052,-5.23822 4.4552,-11.41018 6.75,-14.59375 0.471,-0.65347 1.1217,-1.64733 1.4687,-2.21875 0.347,-0.57146 1.2022,-1.78385 1.875,-2.71875 0.673,-0.935 1.288,-2.07141 1.375,-2.5 -0.4147,-0.13898 -1.6975,-0.17786 -2.8437,-0.0625 -1.1461,0.1153 -2.6442,0.23528 -3.3125,0.25 -0.6684,0.0148 -1.8548,0.0751 -2.65625,0.15625 -3.90457,0.39563 -10.66332,-0.2045 -16,-1.4375 -6.35572,-1.46844 -12.3799,-1.67139 -17.875,-0.59375 -10.21193,2.3843 -18.61716,6.70282 -25.875,14.3125 l -1.09375,0.8125 0.125,-1.09375 c 0.0792,-0.60659 0.31287,-1.9742 0.46875,-3.03125 0.4069,-2.75929 -0.0369,-5.02049 -1.46875,-7.59375 -1.07397,-1.93019 -1.38957,-2.26381 -3.28125,-3.5625 -2.50814,-1.72188 -5.46508,-2.76963 -9.46875,-3.375 -7.47016,-1.1295 -14.65332,0.22411 -24.25,4.5625 -3.03516,1.51398 -8.98195,5.33082 -9.90625,7.03125 4.87111,1.59831 9.97426,3.52281 13.625,7.25 2.75486,3.09053 0.80547,3.67754 -1.96875,5.5625 -16.32971,7.28031 -34.21604,9.90828 -50.9375,16.125 -1.01165,0.57369 -1.125,0.54815 -1.28125,0 -1.60267,-5.62218 -7.3061,-9.81034 -13.875,-10.28125 -6.58446,-0.47202 -11.74653,0.74621 -19.5,4.59375 -7.49919,4.21384 -16.81418,11.42485 -14.34375,21.09375 1.31511,3.98563 5.24761,6.22793 9.1875,7.21875 l 2.65625,0.625 -0.40625,0.84375 c -0.63262,1.25413 -4.59897,4.99672 -6.90625,6.53125 -6.3663,4.23707 -13.11603,7.33671 -21,7.40625 -7.39021,0.007 -14.71856,-1.39796 -18.71875,-8.3125 -1.38405,-2.58265 -1.7156,-5.42258 -1.96875,-8.3125 l -7.1875,4.40625 c -6.76011,4.11734 -7.46295,4.46425 -10.4375,5.46875 -6.64771,2.24493 -11.60643,2.40593 -20.5625,0.6875 -4.92521,-0.94501 -8.40916,-0.91402 -18.84375,0.0625 -3.0414,0.28464 -11.80173,1.81475 -14.4375,2.53125 -2.43159,0.66098 -6.29339,2.05593 -9.9375,3.59375 -1.16636,0.4922 -2.922,1.20315 -3.875,1.5625 -3.13106,1.18066 -8.90182,3.40156 -10.0625,3.875 -0.62619,0.25541 -2.63348,1.01387 -4.46875,1.6875 -1.83536,0.67366 -4.40277,1.73872 -5.71875,2.375 l -1.5,0.71875 -0.0937,-1.15625 c -0.10696,-1.4578 -0.47823,-4.22995 -0.8125,-6.15625 -0.33426,-1.9262 -0.68935,-4.04875 -0.78125,-4.71875 -0.17032,-1.2419 -1.1132,-7.35435 -1.65625,-10.65625 -0.16529,-1.005 -0.43683,-2.8688 -0.59375,-4.125 -0.49027,-3.9248 -1.20039,-7.96995 -1.84375,-10.40625 -0.69737,-2.6409 -3.75705,-11.005 -5.03125,-13.78125 -4.37161,-9.52488 -6.09399,-12.55089 -9.375,-16.34375 -5.96624,-6.89697 -8.30782,-11.27669 -9.6875,-18.15625 -0.61735,-3.07828 -0.65442,-3.83691 -0.46875,-11.75 l 0.21875,-8.4375 c -2.62932,1.2257 -5.25884,2.3448 -8.1875,2.4375 -7.98827,-0.007 -12.87316,-5.62781 -16.5625,-12.03125 -3.88176,-6.86249 -4.58003,-14.27434 -4.09375,-21.90625 0.17529,-2.76544 1.44892,-8.07509 2.21875,-9.25 l 0.53125,-0.78125 1.84375,2 c 2.82801,2.91662 6.76579,5.19765 10.875,4.34375 9.60873,-2.695 11.19406,-14.36735 11.09375,-22.96875 -0.54466,-8.63847 -2.08024,-13.72121 -5.78125,-19.1875 -3.69227,-5.45338 -10.17345,-8.2669 -15.84375,-6.84375 -0.5528,0.13873 -0.616,0.0379 -0.625,-1.125 -2.97688,-17.58957 -9.67133,-34.40541 -11.53125,-52.1875 0.24532,-3.34505 -0.21017,-5.30925 3.84375,-4.46875 5.0532,1.29804 9.27403,4.7369 13.09375,8.15625 1.01048,-1.65069 1.33143,-8.70823 1.125,-12.09375 -1.04119,-10.480178 -3.443,-17.376664 -8.15625,-23.281254 -2.52611,-3.1646 -4.91099,-5.18884 -7.65625,-6.5 -2.07054,-0.9889 -2.51018,-1.09749 -4.71875,-1.0625 -2.94444,0.0466 -5.12633,0.7992 -7.3125,2.53125 -0.83749,0.66352 -1.92055,1.53433 -2.40625,1.90625 l -0.87505,0.65625 0.15625,-1.34375 c 2.96126,-10.090308 2.50984,-19.526606 -0.53125,-29.5625 -1.81428,-5.29772 -5.01918,-10.41753 -9.46875,-15.1875 -3.73615,-4.0052 -7.64032,-9.545851 -9.25,-13.125 -0.33043,-0.73473 -0.86615,-1.82001 -1.1875,-2.40625 -0.32135,-0.58625 -0.96429,-1.91851 -1.4375,-2.96875 -0.47321,-1.05023 -1.14108,-2.14775 -1.46875,-2.4375 z"
       id="path2644"
       sodipodi:nodetypes="cssssccccsssscccccsscccccsccccsssssssscccssssssssccccscccccsscccccssssccccsssscssssccccsssscccccsscccccsccccsssssssscccssssssssccccscccccsscccccssssccccsssscssssccccsssscccccsscccccsccccsssssssscccssssssssccccscccccsscccccssssccccsssscssssccccsssscccccsscccccsccccsssssssscccssssssssccccscccccsscccccssssccccsssscssssccccsssscccccsscccccsccccsssssssscccssssssssccccscccccsscccccssssccccsssscssssccccsssscccccsscccccsccccsssssssscccssssssssccccscccccsscccccssssccccssssc" />
  </g>
</svg>
